<?xml version="1.0" encoding="utf-8"?><svg viewBox="0 0 502.66 502.66" xmlns="http://www.w3.org/2000/svg" xmlns:xlink="http://www.w3.org/1999/xlink"><style>:root>svg{display:none}:root>svg:target{display:block}</style><svg viewBox="0 0 502.664 502.664" xml:space="preserve" id="icon" xmlns="http://www.w3.org/2000/svg"><path d="M153.821 358.226 0 274.337v-46.463l153.821-83.414v54.574L46.636 250.523l107.185 53.431v54.272zm26.273 29.358L282.103 115.08h32.227L212.084 387.584h-31.99zm168.749-29.358v-54.272l107.164-52.999-107.164-52.59v-53.927l153.821 83.522v46.183l-153.821 84.083z"/></svg><svg viewBox="0 0 24 24" id="product-cart" xmlns="http://www.w3.org/2000/svg"><g clip-path="url(#ca)" fill-rule="evenodd" clip-rule="evenodd"><path d="M7 21a2 2 0 1 1 4 0 2 2 0 0 1-4 0Zm11 0a2 2 0 1 1 4 0 2 2 0 0 1-4 0ZM0 1a1 1 0 0 1 1-1h4a1 1 0 0 1 .98.804L6.82 5H23a1 1 0 0 1 .982 1.187l-1.601 8.398A3 3 0 0 1 19.39 17h-9.7a3 3 0 0 1-2.99-2.414L5.03 6.239a.994.994 0 0 1-.017-.084L4.18 2H1a1 1 0 0 1-1-1Zm7.22 6 1.44 7.195a1 1 0 0 0 1 .805h9.76a1 1 0 0 0 .998-.802L21.792 7H7.221Z"/></g><defs><clipPath id="ca"><path d="M0 0h24v24H0z"/></clipPath></defs></svg><svg viewBox="0 0 16 16" id="product-cart-green" xmlns="http://www.w3.org/2000/svg"><g clip-path="url(#ba)" fill-rule="evenodd" clip-rule="evenodd"><path d="M4.667 14a1.333 1.333 0 1 1 2.667 0 1.333 1.333 0 0 1-2.667 0ZM12 14a1.333 1.333 0 1 1 2.667 0A1.333 1.333 0 0 1 12 14ZM0 .667C0 .298.298 0 .667 0h2.666c.318 0 .592.224.654.536l.56 2.797h10.786a.667.667 0 0 1 .655.792l-1.067 5.598a2 2 0 0 1-1.993 1.61H6.459a2 2 0 0 1-1.993-1.61s0 .001 0 0L3.353 4.16a.66.66 0 0 1-.012-.056l-.554-2.77H.667A.667.667 0 0 1 0 .667Zm4.814 4 .96 4.796A.667.667 0 0 0 6.44 10h6.505a.667.667 0 0 0 .666-.534l.915-4.8H4.815Z"/></g><defs><clipPath id="ba"><path d="M0 0h16v16H0z"/></clipPath></defs></svg><svg viewBox="0 0 20 19" id="product-like" xmlns="http://www.w3.org/2000/svg"><path d="M8.887 16.66h-.001c-2.585-2.345-4.69-4.254-6.155-6.045C1.27 8.83.5 7.225.5 5.5c0-2.804 2.196-5 5-5 1.589 0 3.121.742 4.12 1.914l.38.447.38-.447C11.38 1.242 12.912.5 14.5.5c2.804 0 5 2.196 5 5 0 1.726-.772 3.33-2.23 5.116-1.463 1.79-3.564 3.698-6.143 6.042l-.012.011-.001.001L10 17.675 8.887 16.66Z"/></svg><svg viewBox="0 0 12 12" id="product-plus" xmlns="http://www.w3.org/2000/svg"><path d="M6 1v5m0 5V6m0 0h5M6 6H1"/></svg><svg viewBox="0 0 13 11" id="product-star" xmlns="http://www.w3.org/2000/svg"><path d="M5.839.899c.218-.627 1.104-.627 1.322 0l.86 2.468a.7.7 0 0 0 .66.47h2.672c.69 0 .964.892.393 1.28L9.67 6.523a.7.7 0 0 0-.269.81l.813 2.334c.221.636-.496 1.188-1.054.81L6.893 8.94a.7.7 0 0 0-.786 0L3.84 10.477c-.558.379-1.275-.173-1.054-.81L3.6 7.335a.7.7 0 0 0-.269-.81L1.254 5.116c-.571-.387-.297-1.28.393-1.28h2.672a.7.7 0 0 0 .66-.469L5.84.899Z"/></svg></svg>